<svg xmlns="http://www.w3.org/2000/svg" xmlns:xlink="http://www.w3.org/1999/xlink"><symbol id="svg-cat" viewBox="0 0 165 163">
<path d="M14.6173 74.0668C15.3284 73.9783 16.6438 73.4296 16.2172 71.943C15.6839 70.0847 11.6843 70.8811 12.2176 72.7394C12.6442 74.2261 13.9952 74.2438 14.6173 74.0668ZM14.6173 74.0668C14.9728 75.1287 15.044 77.4648 12.4842 78.3143M14.6173 74.0668C14.7062 75.6596 15.5772 78.7922 18.3502 78.5798M42.0809 70.8811H46.0804M50.3466 70.0847C51.6798 70.4387 54.9328 70.7749 57.2792 69.2883M63.9451 65.3062C65.0116 65.7486 67.6246 66.3681 69.5444 65.3062M2.61868 62.1205C2.2228 59.6243 3.33712 57.575 4.24466 56.375C4.68427 55.7938 5.51665 56.0141 5.71725 56.7148C5.977 57.622 6.30347 58.7769 6.54807 59.6911C6.72609 60.3565 7.51359 60.7042 8.14335 60.4251C11.453 58.9584 15.1073 58.7922 17.5013 58.9829C18.2535 59.0429 18.8945 58.321 18.81 57.5711C18.5284 55.0743 19.4725 53.2755 20.4151 52.2494C20.826 51.8021 21.5095 51.9975 21.7815 52.5405C25.1136 59.1931 29.19 61.6993 30.8822 62.1205C46.3471 62.1205 88.7422 51.5016 96.4747 52.0326C102.661 52.4573 112.028 51.1477 115.939 50.4397C132.737 42.741 162.207 48.8469 154.601 33.9805C149.227 23.476 148.179 9.98948 148.346 2.59319C148.367 1.67759 149.492 1.34178 150.033 2.08116C164.844 22.3441 158.696 31.0037 161.534 45.1303C164.467 59.7313 164.734 78.5798 162.601 114.419C160.467 150.257 159.934 154.239 154.068 153.974C149.375 153.762 150.513 147.16 151.668 143.886C151.668 129.816 144.203 132.471 136.737 132.205C129.271 131.94 127.938 136.453 123.938 135.656C119.939 134.86 109.007 134.594 99.1411 136.453C91.2486 137.939 79.3211 138.665 74.3439 138.842C46.0804 145.213 45.2805 136.187 42.3475 145.479C40.4953 151.346 37.746 157.159 35.883 160.696C35.4545 161.51 34.273 161.31 34.0858 160.409C29.9168 140.363 27.9704 139.637 28.4824 146.01C28.8273 150.302 28.7307 156.503 28.5872 160.544C28.5553 161.441 27.4967 161.803 26.9703 161.076C20.8337 152.606 9.81788 130.839 9.81788 127.427C9.81788 123.71 8.75133 126.099 8.4847 123.71C8.21806 121.321 9.81788 121.321 7.68479 117.073C5.5517 112.826 6.88488 114.95 3.68524 107.516C0.485605 100.083 2.61868 94.7736 3.15197 90.5261C3.68526 86.2785 1.28547 84.1547 1.01883 74.0668C0.752194 63.9788 3.41858 67.1645 2.61868 62.1205ZM9.81788 70.0847C9.10685 69.9962 7.68479 69.5537 7.68479 68.4919C7.68479 67.43 9.10685 67.3415 9.81788 67.43C10.44 67.43 11.631 67.6954 11.4177 68.7573C11.2044 69.8192 10.2623 70.0847 9.81788 70.0847ZM18.3502 66.899C17.9947 67.3415 17.497 68.4388 18.3502 69.2883C19.2035 70.1378 20.3056 69.1113 20.75 68.4919C21.0166 68.2264 21.3899 67.5362 20.75 66.899C20.11 66.2619 18.8835 66.6336 18.3502 66.899Z" stroke="#555555" stroke-width="2"/>
<path d="M135.403 132.205C136.825 135.833 138.976 144.045 136.203 147.868C132.737 152.647 139.936 153.709 142.069 151.85C144.202 149.992 146.869 144.683 144.469 132.205" stroke="#555555" stroke-width="2"/>
<path d="M77.4316 64.877L81.516 63.3279" stroke="#555555" stroke-width="2" stroke-linecap="round"/>
<path d="M89.2959 62.7468C90.5451 62.7468 92.4341 63.1656 92.9913 61.7786" stroke="#555555" stroke-width="2" stroke-linecap="round"/>
<path d="M97.7432 61.7534C99.7533 62.1092 100.826 62.2422 102.635 61.5215" stroke="#555555" stroke-width="2" stroke-linecap="round"/>
<path d="M101.004 65.0005C101.77 65.0005 104.538 64.9216 104.964 64.0728" stroke="#555555" stroke-width="2" stroke-linecap="round"/>
<path d="M110.09 59.666C111.289 59.1829 112.096 58.9702 113.351 58.9702" stroke="#555555" stroke-width="2" stroke-linecap="round"/>
<path d="M122.437 57.3465C123.73 56.3618 124.775 55.7229 126.397 55.7229" stroke="#555555" stroke-width="2" stroke-linecap="round"/>
<path d="M124.3 62.2173C126.048 62.2173 126.695 61.8088 128.26 61.2896" stroke="#555555" stroke-width="2" stroke-linecap="round"/>
<path d="M132.454 57.1145C134.093 57.1145 135.063 57.3466 135.716 58.97" stroke="#555555" stroke-width="2" stroke-linecap="round"/>
<path d="M135.482 53.6355H138.511" stroke="#555555" stroke-width="2" stroke-linecap="round"/>
<path d="M143.869 53.1717C145.176 52.6321 145.412 52.4181 145.966 51.3162" stroke="#555555" stroke-width="2" stroke-linecap="round"/>
<path d="M48.123 79.6128C49.3836 79.1458 50.5368 79.1489 51.8504 79.1489" stroke="#555555" stroke-width="2" stroke-linecap="round"/>
<path d="M56.5098 77.0613C56.9941 76.8564 57.4557 76.5904 57.9075 76.3655" stroke="#555555" stroke-width="2" stroke-linecap="round"/>
<path d="M49.7529 74.0461L50.9177 74.2781" stroke="#555555" stroke-width="2" stroke-linecap="round"/>
<path d="M61.168 72.6548C61.7998 72.6548 63.4975 72.9351 63.4975 71.959" stroke="#555555" stroke-width="2" stroke-linecap="round"/>
<path d="M69.5547 73.1184C71.3086 73.4592 72.5804 72.8412 74.2138 72.1907" stroke="#555555" stroke-width="2" stroke-linecap="round"/>
<path d="M71.6514 70.1033C73.1304 70.3137 74.3447 69.6394 75.8446 69.6394" stroke="#555555" stroke-width="2" stroke-linecap="round"/>
<path d="M80.4365 71.7045L83.5058 70.5933" stroke="#555555" stroke-width="2" stroke-linecap="round"/>
<path d="M81.832 77.2607C83.7525 76.8857 85.1782 76.4272 87.1336 76.4272" stroke="#555555" stroke-width="2" stroke-linecap="round"/>
<path d="M87.6914 71.9824C89.0857 71.9824 90.6521 72.4763 91.3188 71.1489" stroke="#555555" stroke-width="2" stroke-linecap="round"/>
<path d="M98.0146 70.8708H101.363" stroke="#555555" stroke-width="2" stroke-linecap="round"/>
<path d="M106.665 68.9264C107.638 68.5248 108.517 68.0043 109.455 67.5374" stroke="#555555" stroke-width="2" stroke-linecap="round"/>
<path d="M116.71 65.3149H118.384" stroke="#555555" stroke-width="2" stroke-linecap="round"/>
<path d="M102.479 75.0381C103.905 75.2699 105.231 75.3159 106.665 75.3159" stroke="#555555" stroke-width="2" stroke-linecap="round"/>
<path d="M121.732 69.2044C123.881 68.1773 125.654 68.1907 127.871 68.9266" stroke="#555555" stroke-width="2" stroke-linecap="round"/>
<path d="M134.567 66.9817C136 65.9066 137.413 64.8339 138.753 63.6479" stroke="#555555" stroke-width="2" stroke-linecap="round"/>
<path d="M55.3242 86.4286C57.0069 86.4286 59.111 86.4683 59.5096 84.4839" stroke="#555555" stroke-width="2" stroke-linecap="round"/>
<path d="M63.1367 81.428C64.1234 81.428 65.6223 81.7228 66.485 81.1501" stroke="#555555" stroke-width="2" stroke-linecap="round"/>
<path d="M69.833 78.9275C71.2864 78.4107 71.7119 78.693 72.9023 79.4831" stroke="#555555" stroke-width="2" stroke-linecap="round"/>
<path d="M64.8115 90.5956C66.3234 90.5956 67.4218 90.954 68.1599 89.4844" stroke="#555555" stroke-width="2" stroke-linecap="round"/>
<path d="M77.3672 88.9287C80.3795 89.6045 82.9814 89.7453 85.738 88.373" stroke="#555555" stroke-width="2" stroke-linecap="round"/>
<path d="M93.2715 88.0954C94.9746 88.7414 96.5439 89.1222 97.7359 87.5398" stroke="#555555" stroke-width="2" stroke-linecap="round"/>
<path d="M116.989 83.0946C119.297 82.1372 121.251 81.9834 123.686 81.9834" stroke="#555555" stroke-width="2" stroke-linecap="round"/>
<path d="M59.5098 102.541C61.5193 101.679 63.5078 100.745 65.6484 100.319" stroke="#555555" stroke-width="2" stroke-linecap="round"/>
<path d="M54.4863 96.9854C56.325 96.7635 58.2057 96.3595 59.7878 97.541" stroke="#555555" stroke-width="2" stroke-linecap="round"/>
<path d="M82.1104 98.3743C84.7973 97.6099 86.9371 97.1013 89.086 95.3184" stroke="#555555" stroke-width="2" stroke-linecap="round"/>
<path d="M78.4834 105.597C80.1045 105.56 81.5656 105.034 82.9478 104.208" stroke="#555555" stroke-width="2" stroke-linecap="round"/>
<path d="M105.828 95.8741C107.411 95.5738 109.176 95.3166 109.176 93.3738" stroke="#555555" stroke-width="2" stroke-linecap="round"/>
<path d="M97.457 105.319C98.4889 104.913 99.5185 104.265 100.526 103.93" stroke="#555555" stroke-width="2" stroke-linecap="round"/>
<path d="M124.802 95.8741C126.338 94.6164 127.261 93.3738 129.266 93.3738" stroke="#555555" stroke-width="2" stroke-linecap="round"/>
<path d="M67.8796 119.488C66.298 118.42 64.5307 117.543 62.5781 117.543" stroke="#555555" stroke-width="2" stroke-linecap="round"/>
<path d="M84.0645 116.71C85.0347 116.69 85.7838 116.68 86.5757 116.154" stroke="#555555" stroke-width="2" stroke-linecap="round"/>
<path d="M104.154 113.932C105.68 112.991 106.349 112.542 108.061 112.542" stroke="#555555" stroke-width="2" stroke-linecap="round"/>
<path d="M110.571 116.71C112.715 117.051 114.818 116.988 116.989 116.988" stroke="#555555" stroke-width="2" stroke-linecap="round"/>
<path d="M123.407 107.542C124.367 106.227 124.336 106.153 125.918 106.153" stroke="#555555" stroke-width="2" stroke-linecap="round"/>
<path d="M134.288 108.653C133.335 110.694 132.249 111.154 130.103 111.154" stroke="#555555" stroke-width="2" stroke-linecap="round"/>
<path d="M95.7832 119.765C94.6996 119.765 93.7157 119.644 92.7139 120.043" stroke="#555555" stroke-width="2" stroke-linecap="round"/>
<path d="M78.7627 128.1C77.6834 128.297 76.7784 128.655 75.6934 128.655" stroke="#555555" stroke-width="2" stroke-linecap="round"/>
<path d="M76.8096 121.988H81.553" stroke="#555555" stroke-width="2" stroke-linecap="round"/>
<path d="M109.177 101.152C110.16 100.983 111.082 100.76 111.967 100.319" stroke="#555555" stroke-width="2" stroke-linecap="round"/>
<path d="M138.475 94.4849C137.493 95.0402 136.468 95.5212 135.405 95.8739" stroke="#555555" stroke-width="2" stroke-linecap="round"/>
<path d="M136.8 88.6508C138.198 88.6508 139.559 88.952 140.706 88.0952" stroke="#555555" stroke-width="2" stroke-linecap="round"/>
<path d="M137.08 83.6504C135.548 84.0639 134.179 84.206 132.615 84.206" stroke="#555555" stroke-width="2" stroke-linecap="round"/>
<path d="M123.965 88.9287C122.529 88.962 121.202 89.4843 119.779 89.4843" stroke="#555555" stroke-width="2" stroke-linecap="round"/>
<path d="M139.032 77.5385C139.999 77.3322 140.91 77.0686 141.823 76.7051" stroke="#555555" stroke-width="2" stroke-linecap="round"/>
<path d="M121.175 78.9275H125.36" stroke="#555555" stroke-width="2" stroke-linecap="round"/>
<path d="M111.408 80.3164C110.796 81.055 110.443 81.7055 109.455 81.7055" stroke="#555555" stroke-width="2" stroke-linecap="round"/>
<path d="M105.828 86.7063C104.381 87.1584 103.131 87.2619 101.643 87.2619" stroke="#555555" stroke-width="2" stroke-linecap="round"/>
<path d="M98.852 82.2614C97.0014 81.9019 95.1492 81.9836 93.2715 81.9836" stroke="#555555" stroke-width="2" stroke-linecap="round"/>
<path d="M73.1816 102.541C74.1833 101.984 75.2749 101.735 76.2509 101.152" stroke="#555555" stroke-width="2" stroke-linecap="round"/>
<path d="M75.9724 95.3183C74.8464 95.1637 73.757 95.0405 72.624 95.0405" stroke="#555555" stroke-width="2" stroke-linecap="round"/>
<path d="M96.6201 100.319C98.3562 99.957 99.9019 98.9297 101.643 98.9297" stroke="#555555" stroke-width="2" stroke-linecap="round"/>
<path d="M129.545 98.9298C130.276 98.7961 132.245 98.5545 132.614 97.8186" stroke="#555555" stroke-width="2" stroke-linecap="round"/>
<path d="M130.382 103.375H136.52" stroke="#555555" stroke-width="2" stroke-linecap="round"/>
<path d="M111.967 106.431C111.894 109.397 109.208 108.653 106.944 108.653" stroke="#555555" stroke-width="2" stroke-linecap="round"/>
<path d="M84.6217 110.32C83.0925 110.32 81.641 110.598 80.1572 110.598" stroke="#555555" stroke-width="2" stroke-linecap="round"/>
<path d="M65.9268 110.042C67.5721 110.315 68.7725 109.487 70.3912 109.487" stroke="#555555" stroke-width="2" stroke-linecap="round"/>
<path d="M132.615 75.3158C133.905 75.0653 135.109 75.1594 136.243 74.4824" stroke="#555555" stroke-width="2" stroke-linecap="round"/>
<path d="M80.7139 82.1426H84.4902" stroke="#555555" stroke-width="2" stroke-linecap="round"/>
<path d="M119.737 98.7485C120.17 101.276 118.306 101.056 116.59 102.195" stroke="#555555" stroke-width="2" stroke-linecap="round"/>
<path d="M110.926 73.9962C112.614 73.6761 114.637 73.3436 116.276 73.9962" stroke="#555555" stroke-width="2" stroke-linecap="round"/>
<path d="M143.654 67.103C142.602 68.444 141.004 69.2963 139.248 69.2963" stroke="#555555" stroke-width="2" stroke-linecap="round"/>
<path d="M101.17 124.441C103.491 124.441 104.898 124.603 106.834 123.501" stroke="#555555" stroke-width="2" stroke-linecap="round"/>
<path d="M148.689 96.5554C147.629 98.1398 146.761 98.7487 144.913 98.7487" stroke="#555555" stroke-width="2" stroke-linecap="round"/>
<path d="M140.821 105.955C140.453 106.581 140.159 107.181 139.877 107.835" stroke="#555555" stroke-width="2" stroke-linecap="round"/>
<path d="M131.066 117.548C128.781 118.447 126.874 118.488 124.457 118.488" stroke="#555555" stroke-width="2" stroke-linecap="round"/>
<path d="M119.737 112.535H123.199" stroke="#555555" stroke-width="2" stroke-linecap="round"/>
<path d="M146.486 83.0825C147.361 82.9126 148.691 83.0785 149.004 82.1426" stroke="#555555" stroke-width="2" stroke-linecap="round"/>
<path d="M150.577 70.5496C151.307 70.5673 151.804 70.6748 152.465 70.8629" stroke="#555555" stroke-width="2" stroke-linecap="round"/>
<path d="M147.431 108.148C148.782 107.911 150.255 107.205 151.522 107.835" stroke="#555555" stroke-width="2" stroke-linecap="round"/>
<path d="M142.71 113.788C144.027 114.484 145.542 115.258 145.542 116.921" stroke="#555555" stroke-width="2" stroke-linecap="round"/>
<path d="M137.675 118.175C138.349 119.001 138.906 119.419 139.878 119.741" stroke="#555555" stroke-width="2" stroke-linecap="round"/>
<path d="M132.954 120.681C131.625 121.242 130.331 121.935 128.863 121.935" stroke="#555555" stroke-width="2" stroke-linecap="round"/>
<path d="M120.68 124.441C119.487 124.821 118.458 125.068 117.219 125.068" stroke="#555555" stroke-width="2" stroke-linecap="round"/>
<path d="M146.486 90.2888H149.633" stroke="#555555" stroke-width="2" stroke-linecap="round"/>
<path d="M154.983 78.3827C154.125 77.7546 151.188 77.0753 150.892 76.1895" stroke="#555555" stroke-width="2" stroke-linecap="round"/>
<path d="M145.542 77.1294L147.43 76.1895" stroke="#555555" stroke-width="2" stroke-linecap="round"/>
<path d="M149.318 62.0897C150.93 62.0897 152.486 62.218 154.039 61.7764" stroke="#555555" stroke-width="2" stroke-linecap="round"/>
<path d="M148.06 58.3298C147.155 58.6944 146.225 59.2698 145.228 59.2698" stroke="#555555" stroke-width="2" stroke-linecap="round"/>
<path d="M56.4834 90.9155C55.6303 90.7377 54.805 90.5167 53.9658 90.2888" stroke="#555555" stroke-width="2" stroke-linecap="round"/>
<path d="M59.6294 105.642C58.5536 106.101 57.6635 106.895 56.4824 106.895" stroke="#555555" stroke-width="2" stroke-linecap="round"/>
<path d="M54.2793 112.535C55.7542 112.255 56.8303 111.933 58.0557 112.848" stroke="#555555" stroke-width="2" stroke-linecap="round"/>
<path d="M52.0771 120.055C53.7561 121.419 54.4862 121.621 56.4829 121.621" stroke="#555555" stroke-width="2" stroke-linecap="round"/>
<path d="M65.6086 125.068C64.5816 125.666 63.9324 126.008 62.7764 126.008" stroke="#555555" stroke-width="2" stroke-linecap="round"/>
<path d="M57.1123 127.888C58.4236 128.131 59.8654 128.514 61.2034 128.514" stroke="#555555" stroke-width="2" stroke-linecap="round"/>
<path d="M69.7002 128.201L72.8472 126.635" stroke="#555555" stroke-width="2" stroke-linecap="round"/>
<path d="M86.6943 130.708C87.6379 130.135 88.5609 129.622 89.5266 129.141" stroke="#555555" stroke-width="2" stroke-linecap="round"/>
<path d="M98.9668 110.968C97.6065 110.968 96.3113 111.179 95.1904 110.342" stroke="#555555" stroke-width="2" stroke-linecap="round"/>
<path d="M98.3374 127.261C97.6297 127.481 97.0727 127.574 96.4492 127.574" stroke="#555555" stroke-width="2" stroke-linecap="round"/>
<path d="M86.3789 123.814H93.3022" stroke="#555555" stroke-width="2" stroke-linecap="round"/>
</symbol><symbol id="svg-decor" viewBox="0 0 199 110">
<path d="M8.8037 48.4318C12.7143 49.4816 16.38 45.0599 16.0905 41.0047C15.8009 36.9494 12.9285 33.587 9.96905 30.8228C7.00958 28.0586 3.68989 25.4268 2.02299 21.7215C-1.04949 14.8855 3.14132 6.11531 10.0279 3.21871C16.9145 0.322102 25.3314 2.82382 30.5111 8.24107C35.6907 13.6583 37.838 21.4827 37.5248 28.969C37.2117 36.4552 34.643 43.6932 31.3893 50.444C27.9236 57.6347 23.5398 64.8963 23.7752 72.8815C24.1401 85.2624 37.9745 95.2433 49.7724 91.6373C61.5702 88.0314 67.5245 72.0113 60.9628 61.5197C58.187 57.0838 53.836 53.92 50.2291 50.1343C46.6222 46.3486 43.5921 41.2766 44.548 36.1265C45.9018 28.8342 55.3782 25.1856 62.1235 28.2076C68.8688 31.2295 72.5817 38.938 72.9114 46.3486C73.2834 54.7641 70.0696 63.312 72.0991 71.4864C74.7077 81.9946 86.8752 88.9677 97.2416 85.9742C107.608 82.9806 114.224 70.6872 111.132 60.3067C109.235 53.9081 104.446 48.8787 100.38 43.5939C96.314 38.309 92.7093 31.875 93.83 25.2944C95.5487 15.2071 108.663 10.1115 117.96 14.318C127.258 18.5246 132.287 29.1983 132.706 39.4227C133.125 49.6472 129.756 59.6068 126.302 69.233C122.787 79.027 119.22 90.2966 124.272 99.386C128.668 107.298 139.105 110.793 147.732 108.104C156.358 105.416 162.748 97.3572 164.591 88.4782C166.435 79.5992 164.087 70.1788 159.308 62.4939C155.456 56.3035 150.145 51.1629 145.996 45.1663C141.848 39.1697 138.841 31.7426 140.558 24.6489C142.512 16.5218 150.867 10.6979 159.188 10.9816C167.508 11.2654 175.165 17.1721 178.31 24.9137C181.456 32.6553 180.297 41.8299 175.998 48.9922C173.173 53.6811 169.114 57.6158 166.969 62.6523C164.824 67.6889 165.444 74.662 170.265 77.2158C176.37 80.4482 183.339 74.3144 186.395 68.1003C189.451 61.8862 191.709 54.3125 198 51.4679" fill="white"/>
<path d="M8.8037 48.4318C12.7143 49.4816 16.38 45.0599 16.0905 41.0047C15.8009 36.9494 12.9285 33.587 9.96905 30.8228C7.00958 28.0586 3.68989 25.4268 2.02299 21.7215C-1.04949 14.8855 3.14132 6.11531 10.0279 3.21871C16.9145 0.322102 25.3314 2.82382 30.5111 8.24107C35.6907 13.6583 37.838 21.4827 37.5248 28.969C37.2117 36.4552 34.643 43.6932 31.3893 50.444C27.9236 57.6347 23.5398 64.8963 23.7752 72.8815C24.1401 85.2624 37.9745 95.2433 49.7724 91.6373C61.5702 88.0314 67.5245 72.0113 60.9628 61.5197C58.187 57.0838 53.836 53.92 50.2291 50.1343C46.6222 46.3486 43.5921 41.2766 44.548 36.1265C45.9018 28.8342 55.3782 25.1856 62.1235 28.2076C68.8688 31.2295 72.5817 38.938 72.9114 46.3486C73.2834 54.7641 70.0696 63.312 72.0991 71.4864C74.7077 81.9946 86.8752 88.9677 97.2416 85.9742C107.608 82.9806 114.224 70.6872 111.132 60.3067C109.235 53.9081 104.446 48.8787 100.38 43.5939C96.314 38.309 92.7093 31.875 93.83 25.2944C95.5487 15.2071 108.663 10.1115 117.96 14.318C127.258 18.5246 132.287 29.1983 132.706 39.4227C133.125 49.6472 129.756 59.6068 126.302 69.233C122.787 79.027 119.22 90.2966 124.272 99.386C128.668 107.298 139.105 110.793 147.732 108.104C156.358 105.416 162.748 97.3572 164.591 88.4782C166.435 79.5992 164.087 70.1788 159.308 62.4939C155.456 56.3035 150.145 51.1629 145.996 45.1663C141.848 39.1697 138.841 31.7426 140.558 24.6489C142.512 16.5218 150.867 10.6979 159.188 10.9816C167.508 11.2654 175.165 17.1721 178.31 24.9137C181.456 32.6553 180.297 41.8299 175.998 48.9922C173.173 53.6811 169.114 57.6158 166.969 62.6523C164.824 67.6889 165.444 74.662 170.265 77.2158C176.37 80.4482 183.339 74.3144 186.395 68.1003C189.451 61.8862 191.709 54.3125 198 51.4679" stroke="#413D58" stroke-width="2" stroke-linecap="round" stroke-linejoin="round"/>
</symbol><symbol id="svg-eye" viewBox="0 0 225 149">
<path d="M205.985 91.9477L205.565 91.5146C205.26 91.703 205.249 92.0018 205.985 91.9477Z" stroke="#413D58" stroke-width="2" stroke-linecap="round" stroke-linejoin="round"/>
<path d="M18.8884 62.1256L3.31073 53.6227C2.72183 53.3 2.06582 52.893 1.95756 52.2282C1.84931 51.5635 2.82359 50.9161 3.19165 51.4769" stroke="#413D58" stroke-width="2" stroke-linecap="round" stroke-linejoin="round"/>
<path d="M48.4976 32.4941C45.0724 29.5537 43.8145 24.9006 42.0327 20.7433C39.8337 15.6249 36.6414 10.9935 32.6406 7.11731C32.8524 7.05699 33.0747 7.04274 33.2924 7.07554C33.5102 7.10833 33.7184 7.1874 33.903 7.30742C34.0876 7.42743 34.2444 7.58562 34.3628 7.77132C34.4811 7.95703 34.5583 8.16593 34.5892 8.38399" stroke="#413D58" stroke-width="2" stroke-linecap="round" stroke-linejoin="round"/>
<path d="M80.853 21.2065L76.1699 1.94873" stroke="#413D58" stroke-width="2" stroke-linecap="round" stroke-linejoin="round"/>
<path d="M126.225 25.0909C129.046 17.7201 131.262 10.1317 132.852 2.40112" stroke="#413D58" stroke-width="2" stroke-linecap="round" stroke-linejoin="round"/>
<path d="M168.086 43.7944C171.839 39.2661 175.389 34.5805 178.736 29.7375" stroke="#413D58" stroke-width="2" stroke-linecap="round" stroke-linejoin="round"/>
<path d="M206.525 70.9058C210.81 67.1885 215.755 64.31 221.103 62.4201C221.865 62.1516 222.716 61.8312 223.051 61.0972" stroke="#413D58" stroke-width="2" stroke-linecap="round" stroke-linejoin="round"/>
<path d="M207.057 91.8069C206.887 91.5842 206.642 91.4306 206.368 91.3745C206.093 91.3183 205.807 91.3635 205.563 91.5016L205.983 91.9347C205.256 91.9888 205.258 91.69 205.563 91.5016C193.48 78.9539 181.057 66.2157 167.218 55.7554C157.817 48.649 147.763 42.5949 136.719 38.3662C116.781 30.7467 94.3961 29.8459 73.8279 35.4583C67.528 37.1713 61.4141 39.5069 55.5764 42.4304C55.4097 42.5127 55.2409 42.5949 55.0741 42.6816C30.0612 55.4154 10.8635 79.0817 3.55859 106.18C17.9541 120.274 35.24 131.409 53.9526 138.475C70.8033 144.836 88.8102 147.9 106.919 146.846C145.137 144.62 182.081 125.639 206.15 95.8624C207.096 94.691 208.034 92.9632 207.057 91.8069Z" stroke="#413D58" stroke-width="2" stroke-linecap="round" stroke-linejoin="round"/>
<path d="M80.2735 37C63.118 41.4263 49.6414 55.9828 43.6884 72.7219C41.9386 77.6475 40.751 82.8599 41.0446 88.0742C41.685 99.4919 49.5785 109.689 59.6107 115.106C69.6428 120.523 81.5011 121.7 92.8485 120.653C98.3879 120.145 104.021 119.087 108.782 116.206C113.473 113.367 117.032 108.907 119.541 104.021C125.991 91.4714 125.501 75.4209 117.695 63.6724C109.89 51.9238 94.8519 45.2634 81.0627 48.0752C67.2735 50.8871 55.8345 63.3874 54.8795 77.4753C54.0084 90.318 61.8923 103.216 73.56 108.559C85.2277 113.901 99.9052 111.529 109.537 103.029C119.169 94.5281 123.393 80.4402 120.362 67.9341C118.814 61.5453 115.49 55.5716 110.732 51.0554C100.53 41.3689 84.1964 39.4771 71.4499 45.3915C58.7033 51.306 49.7901 64.2003 47.3178 78.074C45.5584 87.948 47.0604 98.8415 53.4042 106.585C63.2915 118.668 83.6017 119.163 95.1493 108.668C106.697 98.172 108.744 79.2848 101.138 65.6388C98.0886 60.1643 93.5138 55.3325 87.6809 53.0792C77.0216 48.9628 64.6792 54.4335 56.942 62.8633C51.1053 69.2215 46.9937 77.8005 48.1451 86.3642C50.0036 100.202 65.0852 109.033 79.0002 108.945C93.6377 108.851 108.927 99.5722 112.076 85.2261C114.079 76.0923 110.885 66.2413 104.754 59.1945C94.5622 47.4803 75.7235 43.9416 62.6281 52.2452C49.5327 60.5487 44.8683 80.3082 53.8464 92.9883C60.1558 101.902 71.549 106.212 82.4542 106.11C86.1445 106.074 89.9016 105.569 93.226 103.962C98.4298 101.447 102.09 96.4371 104.225 91.0525C107.431 82.9689 107.497 73.5119 103.653 65.7172C99.8079 57.9224 91.8554 52.1036 83.1995 51.5891C71.6081 50.9005 60.3674 60.7572 59.6431 72.3872C58.9187 84.0171 69.0043 95.255 80.6109 95.6012C92.2176 95.9474 102.986 85.1648 102.538 73.5215C102.09 61.8782 90.3514 51.9372 78.8572 53.5956C70.6607 54.7758 63.7528 61.0193 60.3674 68.5902C57.6988 74.5391 56.9973 81.4635 58.9892 87.6725C60.9812 93.8816 65.7981 99.2413 71.9569 101.328C79.5053 103.878 87.7953 101.42 95.0806 98.1892C102.665 94.8227 110.711 89.4266 111.687 81.1651C112.337 75.7193 109.659 70.4342 106.52 65.9448C103.064 61.0021 98.6566 56.3386 92.9 54.5788C83.6398 51.7383 73.5047 57.4672 68.0397 65.4896C65.1405 69.7456 63.1619 75.0651 64.4924 80.0442C66.9284 89.1722 79.5511 92.0682 87.8868 87.6802C94.7166 84.086 99.6059 75.6294 96.7104 68.4563C93.6282 60.8242 82.986 58.5097 75.7273 62.3621C69.334 65.7535 65.1671 73.2403 66.2251 80.4191C67.283 87.5979 73.8631 93.719 81.0932 93.6788C88.3233 93.6386 95.0082 86.9399 94.5584 79.698" stroke="#413D58" stroke-width="2" stroke-linecap="round" stroke-linejoin="round"/>
</symbol><symbol id="svg-facebook" viewBox="0 0 48 48">
<path fill-rule="evenodd" clip-rule="evenodd" d="M24 0C10.7452 0 0 10.7452 0 24C0 37.2548 10.7452 48 24 48C37.2548 48 48 37.2548 48 24C48 10.7452 37.2548 0 24 0ZM26.5016 25.0542V38.1115H21.0991V25.0547H18.4V20.5551H21.0991V17.8536C21.0991 14.1828 22.6231 12 26.9532 12H30.5581V16.5001H28.3048C26.6192 16.5001 26.5077 17.1289 26.5077 18.3025L26.5016 20.5546H30.5836L30.1059 25.0542H26.5016Z" fill="#413D58"/>
</symbol><symbol id="svg-flower" viewBox="0 0 233 227">
<path d="M104.525 111.966C124.992 131.341 55.1092 151.848 43.3039 154.483C30.2478 157.396 14.4287 157.936 5.81852 147.697C-2.34542 137.987 0.536974 122.25 9.42578 113.2C18.3146 104.149 31.4616 100.638 44.1055 99.6631C57.7698 98.6332 71.5074 100.099 84.6466 103.99C90.3318 105.667 100.136 107.807 104.525 111.966Z" stroke="#413D58" stroke-width="2" stroke-linecap="round" stroke-linejoin="round"/>
<path d="M106.736 133.874C110.27 132.822 114.181 134.604 116.566 137.413C118.951 140.221 120.085 143.871 120.884 147.467C125.097 166.436 121.327 187.047 110.673 203.29C104.84 212.181 96.6195 220.021 86.3833 222.904C76.1471 225.786 63.8131 222.634 58.0568 213.691C52.5877 205.192 54.0772 193.963 57.4883 184.449C64.0774 166.075 77.3353 150.258 94.0271 140.204C124.889 121.613 157.386 153.897 169.458 180.265C174.632 191.57 177.46 205.649 170.379 215.868C164.373 224.535 152.206 227.745 142.141 224.598C132.075 221.451 124.289 212.83 120.537 202.969C116.785 193.108 116.754 182.155 118.65 171.782C120.639 160.981 123.587 148.277 130.748 139.763C137.655 131.545 141.774 121.039 153.224 118.333C160.808 116.539 168.813 118 176.189 120.513C191.378 125.71 204.75 135.166 214.712 147.754C220.017 154.482 224.414 163.371 221.375 171.385C218.169 179.836 208.081 183.468 199.05 183.866C184.093 184.454 169.506 179.131 158.443 169.048C132.439 145.105 131.788 88.8127 174.691 83.5454C189.348 81.7488 204.067 87.0588 216.728 94.6571C221.421 97.4769 226.043 100.737 229.031 105.325C232.018 109.913 233.078 116.107 230.421 120.894C228.201 124.894 223.769 127.284 219.266 128.089C214.764 128.893 210.142 128.316 205.622 127.64C184.837 124.53 161.846 120.195 142.547 111.565C133.19 107.378 117.76 90.3989 110.378 107.301C108.388 111.849 108.368 117.062 109.201 121.969C109.752 125.212 110.776 128.524 112.407 131.383" stroke="#413D58" stroke-width="2" stroke-linecap="round" stroke-linejoin="round"/>
<path d="M153.565 96.8796C169.677 84.6862 182.692 68.8707 191.557 50.713C195.209 43.2057 197.921 33.6034 192.77 27.0256C189.709 23.117 184.444 21.3973 179.484 21.6503C174.524 21.9032 169.819 23.876 165.445 26.2411C147.744 35.8206 134.341 52.6602 128.153 71.7226C125.958 78.4795 121.74 91.0523 125.449 97.8091C131.666 109.14 146.206 102.448 153.565 96.8796Z" stroke="#413D58" stroke-width="2" stroke-linecap="round" stroke-linejoin="round"/>
<path d="M131.359 42.8166C132.496 33.1319 132.956 22.8758 128.749 14.078C124.542 5.28012 114.252 -1.31186 104.988 1.76952C96.5825 4.56947 92.2162 13.788 90.1127 22.3954C85.3599 41.8388 85.3883 76.7288 104.934 88.9264C127.783 103.191 129.795 56.12 131.359 42.8166Z" stroke="#413D58" stroke-width="2" stroke-linecap="round" stroke-linejoin="round"/>
<path d="M75.0188 55.1104C70.6156 50.6277 65.8685 46.2643 60.0696 43.8452C54.2707 41.4262 47.1812 41.2641 42.0446 44.8828C36.1463 49.0415 34.2104 57.2907 35.8591 64.3176C37.5079 71.3445 42.1129 77.3111 47.1443 82.4733C59.3423 94.9252 74.6243 103.92 91.4319 108.54C111.293 113.964 108.453 99.4209 101.031 87.7889C93.5177 76.0232 84.7998 65.0713 75.0188 55.1104V55.1104Z" stroke="#413D58" stroke-width="2" stroke-linecap="round" stroke-linejoin="round"/>
</symbol><symbol id="svg-instagram" viewBox="0 0 48 48">
<path fill-rule="evenodd" clip-rule="evenodd" d="M24 0C10.7452 0 0 10.7452 0 24C0 37.2548 10.7452 48 24 48C37.2548 48 48 37.2548 48 24C48 10.7452 37.2548 0 24 0ZM18.7233 11.2773C20.0886 11.2152 20.5249 11.2 24.0012 11.2H23.9972C27.4746 11.2 27.9092 11.2152 29.2746 11.2773C30.6373 11.3397 31.5679 11.5555 32.384 11.872C33.2266 12.1987 33.9386 12.636 34.6506 13.348C35.3627 14.0595 35.8 14.7736 36.128 15.6155C36.4427 16.4294 36.6587 17.3595 36.7227 18.7222C36.784 20.0876 36.8 20.5238 36.8 24.0001C36.8 27.4764 36.784 27.9116 36.7227 29.277C36.6587 30.6391 36.4427 31.5695 36.128 32.3837C35.8 33.2253 35.3627 33.9394 34.6506 34.6509C33.9394 35.3629 33.2264 35.8013 32.3848 36.1283C31.5703 36.4448 30.6391 36.6605 29.2765 36.7229C27.9111 36.7851 27.4762 36.8003 23.9996 36.8003C20.5236 36.8003 20.0876 36.7851 18.7222 36.7229C17.3598 36.6605 16.4294 36.4448 15.615 36.1283C14.7736 35.8013 14.0595 35.3629 13.3483 34.6509C12.6365 33.9394 12.1992 33.2253 11.872 32.3834C11.5557 31.5695 11.34 30.6394 11.2773 29.2767C11.2155 27.9114 11.2 27.4764 11.2 24.0001C11.2 20.5238 11.216 20.0873 11.2771 18.7219C11.3384 17.3598 11.5544 16.4294 11.8717 15.6152C12.1997 14.7736 12.6371 14.0595 13.3491 13.348C14.0606 12.6363 14.7747 12.1989 15.6166 11.872C16.4305 11.5555 17.3606 11.3397 18.7233 11.2773Z" fill="#413D58"/>
<path fill-rule="evenodd" clip-rule="evenodd" d="M22.853 13.5066C23.0759 13.5063 23.3158 13.5064 23.5746 13.5065L24.0013 13.5066C27.4189 13.5066 27.824 13.5189 29.1736 13.5802C30.4216 13.6373 31.0989 13.8458 31.5501 14.021C32.1475 14.253 32.5733 14.5304 33.0211 14.9784C33.4691 15.4264 33.7464 15.853 33.979 16.4504C34.1542 16.9011 34.363 17.5784 34.4198 18.8264C34.4811 20.1758 34.4944 20.5811 34.4944 23.9971C34.4944 27.4132 34.4811 27.8185 34.4198 29.1678C34.3627 30.4159 34.1542 31.0932 33.979 31.5439C33.747 32.1412 33.4691 32.5665 33.0211 33.0143C32.5731 33.4623 32.1477 33.7396 31.5501 33.9716C31.0995 34.1476 30.4216 34.3556 29.1736 34.4127C27.8242 34.474 27.4189 34.4874 24.0013 34.4874C20.5834 34.4874 20.1783 34.474 18.8289 34.4127C17.5809 34.3551 16.9036 34.1466 16.4521 33.9714C15.8548 33.7394 15.4281 33.462 14.9801 33.014C14.5321 32.566 14.2548 32.1404 14.0222 31.5428C13.847 31.0921 13.6382 30.4148 13.5814 29.1668C13.5201 27.8174 13.5078 27.4121 13.5078 23.9939C13.5078 20.5758 13.5201 20.1726 13.5814 18.8232C13.6385 17.5752 13.847 16.8979 14.0222 16.4466C14.2542 15.8493 14.5321 15.4226 14.9801 14.9746C15.4281 14.5266 15.8548 14.2493 16.4521 14.0168C16.9033 13.8408 17.5809 13.6328 18.8289 13.5754C20.0097 13.5221 20.4674 13.5061 22.853 13.5034V13.5066ZM30.8339 15.632C29.9859 15.632 29.2978 16.3192 29.2978 17.1675C29.2978 18.0155 29.9859 18.7035 30.8339 18.7035C31.6819 18.7035 32.3699 18.0155 32.3699 17.1675C32.3699 16.3194 31.6819 15.6314 30.8339 15.6314V15.632ZM17.4279 24.0001C17.4279 20.37 20.3709 17.4268 24.001 17.4267C27.6312 17.4267 30.5736 20.3699 30.5736 24.0001C30.5736 27.6302 27.6314 30.5721 24.0013 30.5721C20.3711 30.5721 17.4279 27.6302 17.4279 24.0001Z" fill="#413D58"/>
<path d="M24.0011 19.7334C26.3574 19.7334 28.2678 21.6436 28.2678 24.0001C28.2678 26.3564 26.3574 28.2668 24.0011 28.2668C21.6445 28.2668 19.7344 26.3564 19.7344 24.0001C19.7344 21.6436 21.6445 19.7334 24.0011 19.7334V19.7334Z" fill="#413D58"/>
</symbol><symbol id="svg-like" viewBox="0 0 144 194">
<path d="M143.5 44.0642C126.5 47.7308 84.2001 46.6642 51.0001 13.0642C44.6667 5.06418 29.6001 -7.03582 20.0001 8.56418C8.00005 28.0642 50.5001 43.564 47.0001 62.064C43.5001 80.564 1.00017 73.6792 1 92.064C0.999814 112.5 20.9782 108 46.4782 101.5C31.9782 108.5 10.4 106.164 12 124.564C14 147.564 55.5 134.064 71 132.564C58.5001 133.564 33.9001 140.264 35.5 159.064C37.5 182.564 77.5 166.564 82 159.064C86.5 151.564 58 168.064 61 184.064C64 200.064 87 193.064 117 176.064" stroke="black" stroke-width="1.5"/>
</symbol><symbol id="svg-pinterest" viewBox="0 0 48 48">
<path fill-rule="evenodd" clip-rule="evenodd" d="M0 23.895C0 36.9207 10.7251 47.4832 23.9601 47.4832C37.1925 47.4832 47.9201 36.9207 47.9201 23.895C47.9201 10.8693 37.1925 0.309326 23.9601 0.309326C10.7251 0.309326 0 10.8693 0 23.895ZM16.0165 43.8001C7.93998 40.6852 2.21687 32.9496 2.21687 23.8953C2.21687 12.0873 11.9385 2.52011 23.9313 2.52011C35.9242 2.52011 45.6458 12.0873 45.6458 23.8953C45.6458 35.7007 35.9242 45.2704 23.9313 45.2704C21.6908 45.2704 19.5325 44.9369 17.5024 44.3155C18.3853 42.8957 19.7096 40.5689 20.1997 38.7121C20.4641 37.7117 21.5522 33.6317 21.5522 33.6317C22.2606 34.9605 24.3291 36.0873 26.5311 36.0873C33.078 36.0873 37.7977 30.158 37.7977 22.7913C37.7977 15.7302 31.9437 10.4452 24.4112 10.4452C15.0413 10.4452 10.065 16.6397 10.065 23.3824C10.065 26.5151 11.7588 30.4207 14.4689 31.6637C14.8821 31.8506 15.1028 31.7673 15.1978 31.3757C15.2269 31.256 15.3044 30.9466 15.3972 30.576C15.5336 30.0313 15.7032 29.3544 15.8009 28.9529C15.8522 28.7357 15.8266 28.5513 15.6495 28.3391C14.7512 27.2679 14.0352 25.2974 14.0352 23.4607C14.0352 18.7466 17.6616 14.1841 23.8389 14.1841C29.1745 14.1841 32.9086 17.7614 32.9086 22.8797C32.9086 28.6624 29.9419 32.6692 26.082 32.6692C23.9518 32.6692 22.3555 30.9361 22.8663 28.8064C23.0879 27.8882 23.3842 26.944 23.6723 26.0259C24.1816 24.4028 24.6653 22.8613 24.6653 21.6898C24.6653 20.0477 23.7696 18.6784 21.9192 18.6784C19.7378 18.6784 17.9901 20.8965 17.9901 23.87C17.9901 25.7622 18.6394 27.0431 18.6394 27.0431C18.6394 27.0431 16.4861 35.9988 16.0935 37.6662C15.6572 39.5155 15.8266 42.11 16.0165 43.8001Z" fill="#413D58"/>
</symbol><symbol id="svg-prev-page" viewBox="0 0 122 122">
<path d="M19.0592 43.2823C25.6325 34.3519 33.3569 25.5951 42.7153 19.6387C52.7295 12.3263 59.8862 11.9159 70.8684 17.0956C88.0108 25.1808 112.584 49.2637 108.577 70.1968C106.116 83.0509 95.7026 90.141 85.8849 97.3103C70.8562 108.285 47.0895 107.089 33.1575 94.4626C23.717 85.9067 18.3655 73.7807 16.3979 61.3425C15.445 55.3187 15.276 48.422 19.0592 43.2823Z" fill="#BACF39"/>
<path d="M84.7852 61.1838L36.5917 61.1838" stroke="black"/>
<path d="M41.9902 66.6089L36.5907 61.2095L41.9902 55.8099" stroke="black"/>
</symbol><symbol id="svg-signature" viewBox="0 0 267 219">
    <path class="path-signature" d="M1 59L56 84L102.5 99.5L135 106.5L164.5 110.5L184.835 111.673C188.606 111.891 192.388 111.811 196.146 111.435L220.5 109L226.803 107.739C230.914 106.917 234.889 105.521 238.611 103.591L239.358 103.203C244.073 100.758 248.261 97.409 251.682 93.3463V93.3463C253.555 91.1219 255.183 88.7021 256.538 86.1287L256.933 85.377C258.639 82.1362 259.971 78.7119 260.903 75.1702L263.117 66.7564C264.037 63.2599 264.625 59.6845 264.874 56.0775L264.933 55.2267C265.309 49.7761 264.825 44.3004 263.5 39V39L262.419 36.2979C260.491 31.4766 257.663 27.0661 254.086 23.3015V23.3015C251.376 20.4487 248.269 18.0014 244.861 16.0351L237 11.5L226 7L219.5 5L203.5 2L195.999 1.44434C192.006 1.14863 187.997 1.18635 184.011 1.55713L168.5 3L156.236 5.65162C152.087 6.54878 148.025 7.81117 144.098 9.42402L128.022 16.0269C124.015 17.6723 120.166 19.6758 116.52 22.013L107.663 27.6905C104.227 29.8929 100.985 32.3833 97.9713 35.1349L95.9946 36.9397C92.6722 39.9732 89.6414 43.3115 86.942 46.9107L79.55 56.7667C77.1873 59.9169 75.0871 63.2557 73.2704 66.7493L69.5 74L65.9916 83.7156C64.0046 89.218 62.6956 94.9421 62.0937 100.761L61.5 106.5V119L62.1754 125.303C62.7234 130.418 63.8494 135.454 65.532 140.315V140.315C66.8415 144.098 68.4821 147.757 70.4348 151.252L72.9746 155.797C75.6494 160.583 78.8801 165.068 82.5686 169.125V169.125C85.5073 172.358 88.7483 175.332 92.2233 177.98L95.0901 180.164C96.6939 181.386 98.3978 182.47 100.184 183.406L105.594 186.24C107.174 187.067 108.932 187.5 110.716 187.5V187.5C112.544 187.5 114.342 187.047 115.951 186.18L120 184L123.884 181.411C127.289 179.141 130.493 176.585 133.463 173.771L138.5 169L147.082 158.437C150.021 154.821 152.601 150.928 154.787 146.813L157.894 140.964C159.295 138.327 160.448 135.566 161.339 132.716V132.716C162.112 130.243 162.684 127.711 163.051 125.146L163.5 122L163.924 118.397C164.307 115.141 164.363 111.854 164.091 108.586L163.877 106.023C163.627 103.023 162.946 100.075 161.855 97.2698L161.558 96.5063C160.526 93.853 159.071 91.3848 157.248 89.1977L156.313 88.0752C155.441 87.0297 154.435 86.1046 153.32 85.3241V85.3241C151.144 83.8008 148.61 82.8676 145.965 82.6158L142.764 82.3109C140.596 82.1044 138.41 82.1557 136.254 82.4637L135.118 82.6261C133.375 82.875 131.652 83.2474 129.962 83.7404L120.5 86.5L110.012 89.9959C106.012 91.3294 102.136 93.0118 98.4302 95.0236L86.5 101.5L79.75 106L73 110.5L62.4092 118.973C59.4745 121.32 56.7331 123.9 54.2116 126.687V126.687C50.4178 130.88 47.1448 135.517 44.4639 140.496L41.5 146L40.6175 148.395C38.8832 153.103 37.8979 158.053 37.6974 163.065L37.673 163.676C37.558 166.551 37.7384 169.43 38.2115 172.269L38.9828 176.897C39.3247 178.948 40.0426 180.918 41.1004 182.708L44.4624 188.398C45.4154 190.011 47.1492 191 49.0224 191V191C49.3402 191 49.6573 190.971 49.9699 190.915L51.6282 190.613C53.8647 190.206 56.0321 189.484 58.0652 188.467L64 185.5L67.7466 182.924C70.5786 180.977 73.2675 178.83 75.7927 176.499L78.5 174L80.2282 172.006C83.4013 168.345 86.1967 164.372 88.572 160.15L89.5 158.5L92.7864 151.422C94.9228 146.82 96.5669 142.006 97.6913 137.058L98.5 133.5L100.572 123.138C101.852 116.742 102.256 110.203 101.774 103.698L100.998 93.2219C100.668 88.7648 99.6848 84.3804 98.0804 80.2089L94.5294 70.9765C93.5332 68.3863 91.776 66.1585 89.4892 64.5863V64.5863C86.6056 62.6038 83.0742 61.7963 79.6156 62.3284L76.6552 62.7838C73.5888 63.2556 70.6625 64.3917 68.081 66.1126L63.0401 69.4733C61.0162 70.8225 59.0963 72.3216 57.2965 73.9578L43.5 86.5L32 99.5L23.4574 112.314C21.8219 114.767 20.3744 117.39 19.1645 120.079V120.079C17.4116 123.974 16.1137 128.125 15.3496 132.327L15.0956 133.724C14.6993 135.904 14.5 138.114 14.5 140.329V140.329C14.5 146.352 15.9731 152.283 18.7909 157.605L20.0536 159.99C22.3111 164.254 25.6547 167.847 29.7462 170.404V170.404C33.525 172.766 37.8228 174.17 42.2671 174.495L47.6052 174.886C53.1611 175.292 58.7456 174.749 64.1186 173.278L71.4238 171.279C76.9548 169.765 82.2851 167.596 87.3015 164.818L96 160L107.298 152.357C111.091 149.792 114.63 146.87 117.868 143.632L125.168 136.332C130.031 131.469 134.172 125.935 137.465 119.897L142.947 109.847C145.96 104.323 148.008 98.3249 149.002 92.1115L151.076 79.1508C151.353 77.4183 151.139 75.6429 150.458 74.0259V74.0259C148.735 69.9321 144.377 67.6072 140.017 68.4551L133.322 69.7568C130.804 70.2465 128.421 71.2753 126.338 72.7726L118.43 78.4563C115.151 80.8132 112.109 83.4835 109.347 86.4295L94.6052 102.154C92.205 104.715 89.9951 107.447 87.9933 110.33L78.5 124L73.0597 134.541C71.3558 137.842 69.91 141.27 68.7352 144.795L67.5782 148.265C66.1961 152.412 65.227 156.684 64.6848 161.021L64.4874 162.601C64.163 165.196 64.0547 167.813 64.1636 170.426L64.3254 174.31C64.441 177.083 65.0266 179.816 66.0573 182.393L66.6344 183.836C67.8565 186.891 69.8624 189.57 72.4498 191.603V191.603C74.4619 193.184 76.7767 194.336 79.2513 194.987L79.8455 195.144C83.2314 196.035 86.7828 196.093 90.196 195.312L95.2984 194.146C100.065 193.057 104.61 191.162 108.739 188.544L114.936 184.614C120.289 181.219 125.169 177.133 129.452 172.461L143.994 156.598C148.312 151.887 151.984 146.622 154.913 140.942L164.11 123.105C166.033 119.375 167.626 115.485 168.872 111.478L176.515 86.8851C177.836 82.6375 178.759 78.2767 179.275 73.8586L181.05 58.6387C181.681 53.2304 181.696 47.7679 181.095 42.3562L180.702 38.8202C180.236 34.6265 179.197 30.5167 177.614 26.6055L172.384 13.6833C171.812 12.2705 170.773 11.0963 169.441 10.3561V10.3561C167.879 9.48854 166.035 9.28385 164.321 9.78792L160.986 10.7689C159.341 11.2527 157.791 12.0155 156.405 13.0239L147.872 19.2292C143.967 22.0692 140.358 25.2948 137.099 28.8573L126.534 40.4047C122.527 44.7848 119.077 49.6436 116.262 54.8705L96 92.5L89.1727 110.327C87.7268 114.102 86.6015 117.993 85.8086 121.957L83.3982 134.009C82.4683 138.658 82 143.388 82 148.129V150.79C82 153.26 82.184 155.726 82.5503 158.169L82.781 159.706C83.2584 162.889 84.1417 165.997 85.4094 168.955V168.955C86.1355 170.649 86.985 172.288 87.951 173.858L90.1889 177.494C90.3956 177.83 90.6409 178.141 90.9198 178.42L91.1779 178.678C91.3913 178.891 91.6376 179.069 91.9074 179.204V179.204C92.2971 179.399 92.7268 179.5 93.1626 179.5H94.0447C95.3204 179.5 96.5682 179.127 97.6347 178.427L107.908 171.685C110.629 169.9 113.16 167.84 115.461 165.539L122.286 158.714C125.091 155.909 127.658 152.878 129.964 149.651L141.5 133.5L148.737 121.558C150.577 118.524 152.189 115.357 153.561 112.085L158 101.5L163.416 85.9291C165.134 80.9911 166.308 75.8806 166.919 70.6882L167.145 68.769C167.713 63.9355 167.791 59.0567 167.375 54.2076L166.868 48.2891C166.623 45.4397 166.043 42.6292 165.139 39.9161L164.116 36.8489C163.708 35.6225 163.126 34.4605 162.391 33.3976L160.338 30.4326C159.485 29.2004 158.157 28.3795 156.673 28.1676V28.1676C155.9 28.0572 155.113 28.1162 154.365 28.3405L152.951 28.7647C151.335 29.2495 149.849 30.0812 148.526 31.1286C147.599 31.8632 146.726 32.5 146.5 32.5C146.1 32.5 138.667 39.5 135 43L128.357 50.2469C125.458 53.4093 122.848 56.8245 120.557 60.4516L118 64.5L112.288 75.9233C110.765 78.9706 109.459 82.1222 108.382 85.3543L104.5 97V97C103.503 99.9911 102.835 103.082 102.507 106.218L99.5 135V151.511C99.5 157.151 100.163 162.771 101.474 168.256L103.399 176.303C104.463 180.753 106.033 185.066 108.079 189.158L109.067 191.133C111.667 196.334 115.193 201.018 119.473 204.955L122.952 208.156C124.638 209.707 126.576 210.961 128.682 211.864V211.864C131.201 212.943 133.913 213.5 136.654 213.5H137.143C140.021 213.5 142.873 212.951 145.545 211.882L147.428 211.129C150.131 210.048 152.68 208.615 155.008 206.869L155.419 206.561C159.431 203.552 162.79 199.759 165.293 195.412L171 185.5L178.5 167C179.667 163 182 154.9 182 154.5C182 154.297 182.343 152.542 182.768 150.448C183.572 146.487 184.08 142.47 184.238 138.432L184.868 122.356C184.956 120.122 184.876 117.884 184.629 115.662V115.662C184.211 111.903 183.319 108.211 181.972 104.676L180 99.5V99.5C177.675 94.8509 174.789 90.5044 171.407 86.5579L170.5 85.5L164.178 78.9602C158.762 73.3572 152.472 68.6707 145.554 65.0835L142.5 63.5L138.682 62.1452C130.951 59.4019 122.808 58 114.604 58H110.954C106.337 58 101.739 58.5899 97.2714 59.7553V59.7553C94.097 60.5834 91.0044 61.698 88.0315 63.0853L85 64.5V64.5C80.7644 67.1065 77.4089 70.9246 75.368 75.4599L75.2115 75.8078C74.4064 77.5969 73.8058 79.4711 73.421 81.3949L71.3982 91.509C70.4683 96.1583 70 100.888 70 105.629V109.872C70 114.943 70.5357 120 71.5982 124.958L73 131.5L78.0215 145.56C79.6669 150.167 81.9033 154.541 84.6748 158.572L88.769 164.528C90.5695 167.146 92.9015 169.357 95.6133 171.014L95.9497 171.219C98.9361 173.044 102.33 174.096 105.825 174.28L106.205 174.3C108.71 174.432 111.218 174.07 113.584 173.235V173.235C116.803 172.099 119.659 170.123 121.858 167.512L124.385 164.511C125.792 162.841 127.032 161.038 128.088 159.127L134.176 148.11C136.056 144.709 137.657 141.161 138.964 137.501L141.365 130.779C143.446 124.951 144.768 118.878 145.296 112.712L147.474 87.3026C147.491 87.1015 147.487 86.8991 147.46 86.699V86.699C147.123 84.1747 143.848 83.3999 142.416 85.5057L138.226 91.6674C138.076 91.8889 137.941 92.1208 137.824 92.3614L130.288 107.792C128.433 111.59 126.916 115.544 125.755 119.608L122.131 132.293C121.045 136.091 120.275 139.972 119.826 143.897L118.5 155.5V158.318C118.5 164.083 119.224 169.825 120.656 175.409L121.069 177.02C122.679 183.297 125.314 189.265 128.87 194.682L129.784 196.075C132.577 200.332 136.025 204.12 140.001 207.301L140.283 207.526C142.754 209.503 145.427 211.214 148.258 212.629L148.512 212.756C152.152 214.576 156.032 215.87 160.037 216.598V216.598C163.334 217.197 166.691 217.409 170.038 217.228L175.008 216.959C180.642 216.654 186.208 215.575 191.548 213.752L197.593 211.688C201.817 210.246 205.687 207.926 208.949 204.881V204.881C210.645 203.298 212.161 201.534 213.47 199.62L218 193L220.564 188.157C221.851 185.726 222.871 183.163 223.607 180.513V180.513C224.532 177.186 225 173.75 225 170.297V168V165.44C225 161.528 224.143 157.663 222.488 154.117L222.074 153.229C221.692 152.411 221.24 151.628 220.722 150.889V150.889C218.948 148.354 216.457 146.407 213.569 145.296L211.5 144.5V144.5C205.203 142.843 198.691 142.147 192.186 142.436L179.5 143L159.5 144.5L145 147L125.921 150.88C119.011 152.286 112.345 154.699 106.136 158.042L102.5 160L97.0732 163.256C95.6947 164.083 94.4047 165.049 93.2235 166.14L90.0656 169.055C89.0407 170.001 88.2886 171.205 87.8878 172.541L87.5772 173.576C87.2065 174.812 87.3213 176.143 87.8984 177.297V177.297C88.2926 178.085 88.8858 178.757 89.6193 179.246L91.6747 180.616C92.5555 181.204 93.4986 181.692 94.4867 182.072L99.5 184C105 185.667 116.1 189.1 116.5 189.5C116.777 189.777 122.845 190.713 128.595 191.538C133.185 192.196 137.83 192.348 142.463 192.139C147.774 191.899 153.425 191.731 154.5 192C156.5 192.5 171 190.5 172.5 190.5C173.7 190.5 184.667 186.5 190 184.5C192.833 183.167 198.7 180.4 199.5 180C200.3 179.6 205.5 176.833 208 175.5" stroke="#979797" stroke-width="2" stroke-linejoin="round"/>
</symbol><symbol id="svg-telegram" viewBox="0 0 48 48">
<path fill-rule="evenodd" clip-rule="evenodd" d="M0 24C0 37.2548 10.7452 48 24 48C37.2548 48 48 37.2548 48 24C48 10.7452 37.2548 0 24 0C10.7452 0 0 10.7452 0 24ZM19.6 35L20.0083 28.8823L20.008 28.882L31.1369 18.839C31.6253 18.4055 31.0303 18.1941 30.3819 18.5873L16.6473 27.2523L10.7147 25.4007C9.4335 25.0084 9.4243 24.128 11.0023 23.4951L34.1203 14.5809C35.1762 14.1015 36.1953 14.8345 35.7922 16.4505L31.8552 35.0031C31.5803 36.3215 30.7837 36.6368 29.68 36.0278L23.6827 31.5969L20.8 34.4C20.7909 34.4088 20.7819 34.4176 20.7729 34.4264C20.4505 34.7403 20.1837 35 19.6 35Z" fill="#413D58"/>
</symbol><symbol id="svg-terr-1" viewBox="0 0 184 189">
<path d="M42.2458 11.2759C64.8221 4.155 89.1643 -1.21741 112.798 0.295724C139.27 0.29634 152.125 8.59915 164.538 31.3559C183.913 66.8777 195.959 139.336 162.696 170.381C142.27 189.445 115.39 188.558 89.4371 188.558C49.7092 188.558 10.2393 156.574 2.11633 117.264C-3.38791 90.6278 2.65221 62.9841 14.9197 39.0625C20.8609 27.4773 29.2525 15.3741 42.2458 11.2759Z" fill="#EF7D9A"/>
</symbol><symbol id="svg-terr-2" viewBox="0 0 417 228">
<path d="M140.555 1.20643C120.053 3.23084 59.8825 10.5277 24.5331 64.5215C-10.8163 118.515 1.07368 164.367 7.9962 176.99C14.9187 189.612 46.6955 234.102 96.5934 227.169C146.491 220.235 184.419 202.16 211.432 202.474C211.432 202.474 282.912 205.694 322.728 204.267C362.544 202.841 384.334 200.772 402.711 175.677C421.088 150.582 418.569 115.976 408.568 88.0289C398.568 60.0822 380.952 35.0144 335.54 23.7835C290.128 12.5527 225.546 4.58938 206.242 3.99389C186.938 3.39839 161.058 -0.81798 140.555 1.20643Z" fill="#BACF39"/>
</symbol><symbol id="svg-tooth" viewBox="0 0 403 457">
    <path class="path-tooth" d="M3.5 380.5L25 374L46.0903 365.778C51.6842 363.598 57.0587 360.892 62.1418 357.697L64.5302 356.195C69.4944 353.075 74.0927 349.407 78.2387 345.261V345.261C83.059 340.441 87.2296 335.012 90.6451 329.113L92.8065 325.38C95.2585 321.144 97.152 316.609 98.4396 311.888V311.888C99.1457 309.299 99.667 306.664 99.9999 304.001L100.5 300V300C100.5 295.027 99.774 290.08 98.3449 285.316L97.5 282.5L95.811 278.213C92.6188 270.109 88.3275 262.484 83.0576 255.55L72 241L45.5 209.5L41.0048 202.889C38.3387 198.969 35.9698 194.854 33.9181 190.579L31 184.5L26.5589 173.397C24.8579 169.145 23.6202 164.721 22.8673 160.204V160.204C22.2901 156.74 22 153.236 22 149.725V147.5V147.5C22 141.849 22.5868 136.212 23.7511 130.682L24 129.5L24.6252 127.249C25.8703 122.767 27.6674 118.457 29.9753 114.418V114.418C31.655 111.479 33.5971 108.697 35.7778 106.108L40.5 100.5V100.5C43.8073 97.5234 47.6144 95.1543 51.7457 93.5017L58 91L76 86.5L79.3062 86.0102C86.0807 85.0066 92.7215 83.2472 99.1044 80.765V80.765C104.688 78.5935 110.045 75.8802 115.1 72.6637L118.5 70.5L135 57L143.5 49L164 29L172.522 21.6955C176.167 18.5711 180.077 15.7693 184.207 13.3217V13.3217C189.056 10.4481 194.186 8.07662 199.517 6.24421L203.17 4.98835C206.053 3.99744 209.004 3.218 212 2.65625V2.65625M212 2.65625V2.65625C214.313 2.22253 216.687 2.22253 219 2.65625L224.5 3.6875M212 2.65625L205.5 2.5L201 3L199.998 3.16707C196.671 3.7215 193.393 4.5357 190.193 5.60217L189.63 5.79004C186.217 6.92756 182.918 8.37911 179.773 10.126V10.126C176.929 11.7059 174.223 13.5215 171.683 15.5537L171.194 15.9446C167.41 18.9722 163.972 22.4097 160.945 26.1942L157.5 30.5L147 48L141.5 56L136.5 64L134.063 67.1327C131.027 71.037 127.66 74.6728 124 78V78L122.197 79.3869C119.077 81.7871 115.682 83.8079 112.085 85.4067V85.4067C109.699 86.4673 107.235 87.348 104.702 87.9812C102.572 88.5134 100.483 89 100 89C99.2 89 94.6667 89.3333 92.5 89.5H84L74 88.5C68.6667 88.5 57.8 88.5 57 88.5C56.8269 88.5 56.4323 88.5156 55.893 88.5417C50.6509 88.7959 45.4789 89.8404 40.5 91.5V91.5L39.3712 91.9939C34.8057 93.9913 30.4866 96.51 26.5 99.5V99.5L25.403 100.344C21.8165 103.103 18.6079 106.321 15.8593 109.915V109.915C14.2886 111.969 12.8743 114.138 11.6283 116.403L11.124 117.32C9.0464 121.097 7.34614 125.071 6.04791 129.182L5 132.5L3 140.5L2 149.5V153.056C2 157.345 2.35431 161.626 3.05933 165.856V165.856C4.01675 171.601 5.6157 177.22 7.82615 182.607L9.56677 186.85C11.519 191.609 13.8545 196.201 16.5502 200.582L20.5 207L31 220.5L38.5 228.5L51 240.5L66 252.5L85 267L99.5 278L118 293.5L128.5 303.5L142 318.5L151 330L161 344L167 353L178.5 371L185.5 382L195.5 397L203 408L209.5 417L217.5 427L224.5 435L233 444L234.877 445.877C237.615 448.615 240.679 451.008 244 453V453L244.394 453.197C246.781 454.39 249.353 455.169 252 455.5V455.5H252.887C254.615 455.5 256.329 455.189 257.947 454.582V454.582C258.979 454.195 259.963 453.691 260.88 453.08L262.5 452V452C264.821 450.011 266.834 447.689 268.475 445.111L269.5 443.5V443.5C271.488 440.187 272.951 436.585 273.836 432.824L274.5 430L276 422L276.5 414.5V409.5V403L275.5 395.5L274.5 389.5L273 382.5L269 368.5L265.5 358L255.5 335.5L246 318L239.75 306.158C237.586 302.058 235.725 297.805 234.183 293.434L230.5 283L229.5 278.5L229.362 277.122C229.123 274.729 229.339 272.312 230 270V270L230.434 268.482C230.808 267.174 231.438 265.953 232.288 264.89V264.89C232.761 264.299 233.299 263.761 233.89 263.288L234.051 263.159C235.012 262.391 236.083 261.773 237.229 261.328L240.185 260.178C243.047 259.065 246.052 258.359 249.111 258.081L250 258H251.545C253.843 258 256.135 258.227 258.388 258.678V258.678C261.119 259.224 263.776 260.095 266.3 261.273L266.662 261.442C268.882 262.478 270.998 263.725 272.979 265.166L275.5 267L281.5 272L281.618 272.118C285.532 276.032 289.096 280.28 292.27 284.814L294.5 288L307.5 308.5L328.5 344.5L337 357.5L343 366.5L345.961 370.201C349.314 374.393 353.017 378.293 357.029 381.859L360 384.5L363.007 387.006C364.996 388.663 367.169 390.085 369.485 391.242L370.491 391.745C372.817 392.909 375.304 393.717 377.87 394.145L378.637 394.273C379.544 394.424 380.462 394.5 381.382 394.5V394.5C383.766 394.5 386.123 393.99 388.293 393.003L390.5 392L391.254 391.623C392.735 390.882 394.047 389.843 395.108 388.571V388.571C395.701 387.859 396.209 387.082 396.623 386.254L397.551 384.399C398.183 383.135 398.724 381.827 399.171 380.486L400 378L400.44 376.24C400.812 374.752 401 373.225 401 371.691V371.691C401 370.566 400.899 369.443 400.697 368.336L400.549 367.52C400.184 365.513 399.601 363.551 398.809 361.671L396 355L395.26 353.603C392.758 348.876 389.861 344.369 386.6 340.13L386.5 340L378 326.5L367 308.5L357.5 291.5L345 266L332 235.5L321 204L311.5 167L306 137.5L301 108L298.321 92.2604C297.442 87.0956 296.137 82.0125 294.42 77.0629L288.5 60L286.25 54.5352C283.101 46.888 278.827 39.7543 273.57 33.3703L269.901 28.9153C268.306 26.9782 266.493 25.2303 264.5 23.7059V23.7059M224.5 3.6875V3.6875C229.153 4.56001 233.7 5.92649 238.064 7.76373L241 9M224.5 3.6875L241 9M241 9L245.279 10.8017C248.746 12.2613 252.012 14.1564 255 16.4412V16.4412L264.5 23.7059M264.5 23.7059L274.969 34.3503C279.643 39.1036 283.805 44.3357 287.384 49.9602L289 52.5L295 64.5L300.701 78.9198C302.564 83.6324 304.047 88.4865 305.136 93.4356L309 111L313.5 135L316.5 154.5L319 163.5L319.4 164.612C322.116 172.154 326.033 179.208 331 185.5V185.5L331.257 185.757C334.398 188.898 338.026 191.513 342 193.5V193.5L344.275 194.375C347.085 195.456 349.993 196.263 352.958 196.787V196.787C355.647 197.261 358.374 197.5 361.105 197.5H367.5L376 196.5L384 194.5L396 190.5" stroke="#413D58" stroke-width="3" stroke-linejoin="round"/>
</symbol><symbol id="svg-twitter" viewBox="0 0 48 48">
<path fill-rule="evenodd" clip-rule="evenodd" d="M24 0C10.7452 0 0 10.7452 0 24C0 37.2548 10.7452 48 24 48C37.2548 48 48 37.2548 48 24C48 10.7452 37.2548 0 24 0ZM23.3316 20.338L23.2812 19.5075C23.1301 17.3551 24.4563 15.3891 26.5548 14.6265C27.327 14.3553 28.6364 14.3214 29.4926 14.5587C29.8283 14.6604 30.4663 14.9993 30.9195 15.3044L31.7421 15.8637L32.6486 15.5756C33.1523 15.423 33.8238 15.1688 34.1259 14.9993C34.4113 14.8468 34.6631 14.762 34.6631 14.8129C34.6631 15.101 34.042 16.084 33.5216 16.6263C32.8165 17.389 33.018 17.4568 34.4449 16.9483C35.3011 16.6602 35.3178 16.6602 35.15 16.9822C35.0492 17.1517 34.5288 17.7449 33.9748 18.2872C33.0347 19.2194 32.9844 19.3211 32.9844 20.1007C32.9844 21.304 32.4136 23.8123 31.8428 25.1851C30.7852 27.7612 28.5189 30.422 26.2526 31.7609C23.063 33.6422 18.8157 34.1167 15.24 33.0151C14.0481 32.6422 12 31.6931 12 31.5237C12 31.4728 12.6211 31.405 13.3766 31.3881C14.9546 31.3542 16.5326 30.9135 17.8756 30.1339L18.7822 29.5916L17.7413 29.2357C16.264 28.7272 14.9378 27.5578 14.6021 26.4562C14.5013 26.1003 14.5349 26.0833 15.475 26.0833L16.4487 26.0664L15.6261 25.6766C14.6524 25.1851 13.7627 24.3546 13.3262 23.5072C13.0072 22.8971 12.6044 21.3548 12.7219 21.2362C12.7554 21.1854 13.108 21.287 13.5109 21.4226C14.6692 21.8463 14.8203 21.7446 14.1488 21.0328C12.8897 19.7448 12.5036 17.8296 13.108 16.0162L13.3934 15.2027L14.5013 16.3043C16.7677 18.5245 19.4369 19.8465 22.4922 20.2363L23.3316 20.338Z" fill="#413D58"/>
</symbol><symbol id="svg-zigzag" viewBox="0 0 199 110">
    <path class="svg-zigzag-path" d="M8.8037 48.4318C12.7143 49.4816 16.38 45.0599 16.0905 41.0047C15.8009 36.9494 12.9285 33.587 9.96905 30.8228C7.00958 28.0586 3.68989 25.4268 2.02299 21.7215C-1.04949 14.8855 3.14132 6.11531 10.0279 3.21871C16.9145 0.322102 25.3314 2.82382 30.5111 8.24107C35.6907 13.6583 37.838 21.4827 37.5248 28.969C37.2117 36.4552 34.643 43.6932 31.3893 50.444C27.9236 57.6347 23.5398 64.8963 23.7752 72.8815C24.1401 85.2624 37.9745 95.2433 49.7724 91.6373C61.5702 88.0314 67.5245 72.0113 60.9628 61.5197C58.187 57.0838 53.836 53.92 50.2291 50.1343C46.6222 46.3486 43.5921 41.2766 44.548 36.1265C45.9018 28.8342 55.3782 25.1856 62.1235 28.2076C68.8688 31.2295 72.5817 38.938 72.9114 46.3486C73.2834 54.7641 70.0696 63.312 72.0991 71.4864C74.7077 81.9946 86.8752 88.9677 97.2416 85.9742C107.608 82.9806 114.224 70.6872 111.132 60.3067C109.235 53.9081 104.446 48.8787 100.38 43.5939C96.314 38.309 92.7093 31.875 93.83 25.2944C95.5487 15.2071 108.663 10.1115 117.96 14.318C127.258 18.5246 132.287 29.1983 132.706 39.4227C133.125 49.6472 129.756 59.6068 126.302 69.233C122.787 79.027 119.22 90.2966 124.272 99.386C128.668 107.298 139.105 110.793 147.732 108.104C156.358 105.416 162.748 97.3572 164.591 88.4782C166.435 79.5992 164.087 70.1788 159.308 62.4939C155.456 56.3035 150.145 51.1629 145.996 45.1663C141.848 39.1697 138.841 31.7426 140.558 24.6489C142.512 16.5218 150.867 10.6979 159.188 10.9816C167.508 11.2654 175.165 17.1721 178.31 24.9137C181.456 32.6553 180.297 41.8299 175.998 48.9922C173.173 53.6811 169.114 57.6158 166.969 62.6523C164.824 67.6889 165.444 74.662 170.265 77.2158C176.37 80.4482 183.339 74.3144 186.395 68.1003C189.451 61.8862 191.709 54.3125 198 51.4679" stroke="#413D58" stroke-width="2" stroke-linecap="round" stroke-linejoin="round"/>
</symbol><symbol id="svg__arrow-slogan" viewBox="0 0 260 108">
    <g class="arrow">
        <path d="M12.394 76.4894C15.4028 65.9199 26.5123 60.2109 35.4616 55.1962C46.8025 48.9471 58.9149 47.6356 71.5674 46.8641C72.8018 46.7869 72.8018 44.8582 71.5674 44.9354C57.912 45.784 45.2595 47.327 33.2243 54.1933C24.1207 59.3623 13.6284 65.1484 10.4653 75.8722C10.2338 77.1837 12.0854 77.7238 12.394 76.4894Z" fill="#4F4C64"/>
        <path d="M25.8175 78.2637C20.1085 79.0352 15.9424 84.2814 13.0108 88.9103C11.3135 91.6105 9.92479 94.465 8.999 97.4739C8.53611 99.0168 8.15036 100.637 7.84176 102.257C7.76462 102.643 7.76462 104.032 7.53317 104.34C5.99019 105.806 5.37299 103.183 4.98725 102.18C-0.79894 86.3644 2.67277 69.0058 5.83589 53.0359C6.06734 51.8016 4.21575 51.3387 3.98431 52.4959C2.20988 61.5995 0.358296 70.7031 0.0496997 79.961C-0.181748 87.9074 0.281147 97.3196 3.90716 104.649C4.52435 105.96 5.60444 107.658 7.37887 107.272C9.7705 106.732 9.6162 103.337 10.0019 101.563C11.6221 93.6936 17.4854 81.3497 26.4347 80.1153C27.592 79.961 27.0519 78.1094 25.8175 78.2637Z" fill="#4F4C64"/>
    </g>
    <g class="slogan">
        <path d="M94.1721 32.9001C95.7922 30.0456 97.6438 27.4226 99.8811 24.9538C100.73 24.028 102.813 21.1735 104.433 21.7907C105.282 22.0993 105.127 26.3425 105.127 27.4226C104.973 34.4431 102.041 41.4637 98.6467 47.4813C98.0295 48.5614 99.5725 49.4101 100.344 48.4843C104.356 43.0067 112.071 35.0603 118.628 42.3123C122.872 47.0184 123.334 54.6562 121.791 60.5195C120.171 66.6143 116.082 71.7833 110.528 74.7921C107.596 76.3351 104.201 77.4152 100.884 77.4924C98.4924 77.5695 96.718 77.7238 95.715 74.5607C95.0207 72.2462 95.7922 69.4688 96.718 67.3858C97.258 66.2286 95.5607 65.3028 95.0207 66.3829C93.632 69.4689 92.5519 74.0207 94.5578 77.1066C96.4094 80.0383 100.498 79.5754 103.43 79.1125C112.225 77.7238 119.786 71.629 122.872 63.2198C125.572 55.8134 125.186 44.6268 118.32 39.4578C110.605 33.6716 102.967 41.618 98.5696 47.4813C99.1096 47.7899 99.6496 48.0985 100.267 48.4843C102.658 44.2411 104.664 39.6893 105.899 34.906C106.979 30.8171 108.136 24.8766 106.053 20.942C102.967 14.8472 93.9406 29.4284 92.4748 31.9744C91.8576 33.0544 93.5549 33.9802 94.1721 32.9001Z" fill="#4F4C64"/>
        <path d="M132.206 46.7098C132.824 51.8788 129.275 67.3087 137.838 68.6202C140.77 69.0831 143.393 65.5342 145.013 63.6055C147.559 60.6738 149.256 57.4336 148.948 53.499C148.331 53.6533 147.713 53.8076 147.173 53.9619C149.951 59.748 152.805 65.4571 155.505 71.2433C158.206 77.1066 160.906 83.8957 159.054 90.4534C158.36 92.9993 157.048 95.4681 155.043 97.2425C153.191 98.9398 150.876 100.174 148.562 98.8627C146.633 97.7826 146.093 96.2396 145.322 94.1566C143.162 87.9846 143.779 81.2727 146.788 75.4865C147.328 74.4064 145.707 73.4035 145.09 74.4835C141.619 81.1955 141.079 89.0647 144.01 96.0853C144.936 98.3226 146.093 100.869 148.716 101.409C151.648 102.026 154.811 100.251 156.817 98.2455C161.754 93.3851 162.372 85.9788 160.752 79.6525C158.437 70.3946 152.959 61.5996 148.871 53.0361C148.485 52.1874 147.019 52.5732 147.096 53.499C147.405 56.8935 145.939 59.6709 143.779 62.2168C141.541 64.8399 138.07 68.3887 135.215 63.3741C132.592 58.668 134.907 51.7245 134.289 46.6327C133.981 45.4754 132.052 45.4755 132.206 46.7098Z" fill="#4F4C64"/>
        <path d="M165.998 39.072C163.221 45.1668 160.675 58.6679 170.241 60.6738C173.79 61.4453 175.333 59.208 175.796 55.9677C176.413 52.1874 175.256 48.5614 172.17 46.1698C168.158 43.0838 162.912 41.618 158.746 38.7634C153.577 35.2146 149.334 30.1227 148.639 23.7194C147.251 9.6782 166.229 4.43206 176.722 1.88614C177.956 1.57754 177.416 -0.274042 176.182 0.0345552C162.603 3.42912 140.076 11.6841 148.331 29.9684C151.88 37.7605 159.595 42.0037 166.924 45.5526C169.161 46.6327 171.707 47.7127 173.019 49.9501C173.867 51.3388 174.099 53.1132 174.021 54.6562C173.944 55.2734 173.79 55.9677 173.713 56.5849C173.019 58.8222 171.861 59.4394 170.241 58.5136C166.538 58.0507 165.304 53.1132 165.226 50.1044C165.149 46.5555 166.152 43.2381 167.618 39.9978C168.158 38.9177 166.538 37.9148 165.998 39.072Z" fill="#4F4C64"/>
        <path d="M182.43 34.8289C183.664 39.535 185.13 44.3182 187.676 48.4843C189.528 51.4931 192.691 55.582 196.471 56.2763C200.174 56.9707 201.717 52.5732 202.643 49.7958C204.263 45.0126 204.109 39.8436 202.412 35.0603C202.103 34.2117 200.869 34.1345 200.56 35.0603C199.017 40.3836 202.875 45.6298 206.886 48.7157C211.592 52.3417 217.379 53.7304 223.242 52.8818C224.476 52.7275 223.936 50.8759 222.702 51.0302C218.15 51.7245 213.521 50.7988 209.664 48.33C205.652 45.8612 200.869 40.6922 202.412 35.6004C201.794 35.6004 201.177 35.6004 200.56 35.6004C201.795 39.3035 202.257 43.161 201.409 46.9413C201.023 48.6386 200.56 50.9531 199.403 52.3417C197.32 54.8877 195.005 53.8076 192.845 51.8788C187.908 47.4042 185.979 40.5379 184.282 34.2888C183.973 33.1316 182.121 33.6716 182.43 34.8289Z" fill="#4F4C64"/>
        <path d="M221.314 10.1411C223.243 23.6422 226.56 35.9861 234.969 47.0184C235.741 48.0214 237.361 47.0184 236.666 46.0155C228.334 35.1375 225.171 22.9479 223.165 9.60109C223.011 8.36671 221.16 8.90675 221.314 10.1411Z" fill="#4F4C64"/>
        <path d="M229.877 29.9685C229.877 25.2624 233.117 20.9421 235.432 17.0075C237.592 13.2271 239.752 9.36969 241.912 5.58938C242.529 4.50929 240.832 3.50635 240.215 4.58644C237.592 9.21539 234.892 13.9215 232.269 18.5504C230.186 22.1765 227.948 25.6482 227.948 29.9685C227.948 31.2029 229.877 31.2029 229.877 29.9685Z" fill="#4F4C64"/>
        <path d="M229.877 32.2057C231.497 28.8112 234.506 26.9596 238.209 26.1881C241.835 25.4166 248.316 24.8765 251.402 27.2682C257.034 31.6657 258.808 40.5378 257.882 47.1726C257.728 48.407 259.58 48.9471 259.734 47.7127C260.814 40.2292 258.731 28.8111 251.248 24.7994C247.622 22.8707 241.527 23.4879 237.669 24.3365C233.58 25.1851 230.032 27.4225 228.18 31.2799C227.64 32.36 229.337 33.363 229.877 32.2057Z" fill="#4F4C64"/>
    </g>
</symbol></svg>