<svg width="169" height="148" viewBox="0 0 169 148" fill="none" xmlns="http://www.w3.org/2000/svg">
<path d="M124.096 11.8433L118.497 18.4199C114.48 22.8605 110.874 27.6584 107.726 32.7542C102.77 41.3376 100.535 51.1783 96.4682 60.2076C92.1377 69.8207 85.8104 78.3556 79.5279 86.8324L12.6537 63.9508C10.4622 63.1857 3.46181 62.1183 2.89214 59.5469C26.0049 53.406 47.1863 45.6441 68.1531 33.8982C84.8349 24.553 101.028 12.6156 120.047 10.6262C121.518 10.3419 123.039 10.4569 124.452 10.9595C126.096 11.9576 127.388 13.4446 128.148 15.2126C141.248 39.0618 154.361 62.9112 167.486 86.7608L113.05 106.773C96.0329 113.013 78.9121 119.304 62.4423 126.941C56.9329 129.612 51.7657 132.939 47.0521 136.848C44.6431 138.834 39.4259 141.868 39.6592 142.576C28.3523 114.903 16.2316 87.5813 3.29712 60.6103" stroke="#413D58" stroke-width="2" stroke-miterlimit="10"/>
<path d="M102.498 44.3159C117.399 52.3636 131.38 62.0143 144.194 73.0965C151.041 78.507 158.398 83.237 166.16 87.2197" stroke="#413D58" stroke-width="2" stroke-miterlimit="10"/>
<path d="M43.7968 74.6028C40.046 97.8053 39.6404 116.89 39.9427 140.413" stroke="#413D58" stroke-width="2" stroke-miterlimit="10"/>
</svg>
