<svg width="82" height="100" viewBox="0 0 82 100" fill="none" xmlns="http://www.w3.org/2000/svg">
<g clip-path="url(#clip0_173:308)">
<path d="M36.2149 19.7336C36.0724 19.8421 35.9074 19.9174 35.732 19.954C35.5566 19.9905 35.3751 19.9875 35.2009 19.945C35.0267 19.9026 34.8641 19.8218 34.7251 19.7086C34.586 19.5954 34.474 19.4527 34.3971 19.2907C34.2593 18.957 34.1914 18.5988 34.1974 18.238C34.2034 17.8772 34.2834 17.5216 34.4323 17.1931C35.521 14.0919 38.5256 12.0735 41.5706 10.8995C44.9024 9.58801 48.4858 9.03454 52.0606 9.27931C55.6353 9.52409 59.1118 10.561 62.2376 12.3147C65.3265 14.1283 67.9164 16.6803 69.7743 19.7409C71.6321 22.8015 72.6995 26.2747 72.8804 29.8476C72.991 33.4268 72.1142 36.966 70.3458 40.0782C68.5775 43.1903 65.9857 45.7553 62.8542 47.4927C58.4065 49.8211 53.2324 50.2192 48.2081 50.4616C43.1837 50.704 38.035 50.8636 33.3973 52.789C28.7595 54.7143 24.6289 58.8567 24.3934 63.8714L24.9565 63.0949" stroke="#413D58" stroke-width="2" stroke-miterlimit="10"/>
<path d="M20.2656 87.7504C20.9279 88.3366 21.7203 88.7566 22.5772 88.9757C23.5783 89.2036 24.6229 89.1463 25.5922 88.8103C27.1305 88.3074 28.4644 87.3215 29.3956 85.9994C30.3268 84.6773 30.8055 83.0896 30.7605 81.4725C29.7857 68.9972 10.2385 78.9585 20.2656 87.7504Z" stroke="#413D58" stroke-width="2" stroke-miterlimit="10"/>
</g>
<defs>
<clipPath id="clip0_173:308">
<rect width="44" height="88" fill="white" transform="translate(42.1699 0.820312) rotate(27.9271)"/>
</clipPath>
</defs>
</svg>
