<svg width="566" height="328" viewBox="0 0 566 328" fill="none" xmlns="http://www.w3.org/2000/svg">
 
<path d="M235.968 12.747C253.084 20.9799 270.915 26.8641 288.835 33.1202C290.891 34.4907 294.212 36.0742 297.55 36.0742C301.74 36.0742 304.646 37.3174 308.55 39.0742C319.796 44.1348 321.48 38.7046 332.87 43.5002C344.726 48.4922 355.964 53.9189 367.491 59.6827C384.319 68.0968 400.448 73.7889 418.811 78.3796C439.473 83.5451 461.722 90.1141 480.769 99.8488C507.552 113.538 543.295 120.958 553.945 153.876C556.216 160.897 558.874 167.73 561.294 174.701C563.245 180.318 561.974 186.263 563.873 191.851C568.727 206.125 559.406 218.469 549.689 228.342C527.926 250.456 500.935 265.002 470.518 271.022C425.312 279.969 381.031 292.405 335.384 298.874C291.705 305.065 247.815 310.765 204.377 318.345C184 321.901 164.783 328.82 143.837 327.822C127.766 327.057 110.734 321.045 97.4174 312.285C70.3319 294.465 50.0602 269.343 35.8465 240.269C28.2774 224.787 17.7414 210.616 11.5405 194.494C8.51611 186.63 7.01692 178.772 5.02883 170.639C3.10107 162.753 0 154.967 0 146.72C0 117.957 7.1004 89.102 26.5625 67.8706C34.4984 59.2133 38.4045 50.7715 48.3541 43.8225C58.0643 37.0408 68.8429 31.9139 78.5271 24.9967C91.441 15.7724 103.139 6.53233 119.66 4.36558C142.176 1.41273 165.201 -1.40926 187.614 4.10769C198.728 6.84345 211.014 5.97584 222.429 7.84708C226.91 8.58172 231.897 10.789 235.968 12.747Z" fill="#ffffff9c"/>
 
</svg>
