<svg width="233" height="227" viewBox="0 0 233 227" fill="none" xmlns="http://www.w3.org/2000/svg">
<path d="M104.525 111.966C124.992 131.341 55.1092 151.848 43.3039 154.483C30.2478 157.396 14.4287 157.936 5.81852 147.697C-2.34542 137.987 0.536974 122.25 9.42578 113.2C18.3146 104.149 31.4616 100.638 44.1055 99.6631C57.7698 98.6332 71.5074 100.099 84.6466 103.99C90.3318 105.667 100.136 107.807 104.525 111.966Z" stroke="#413D58" stroke-width="2" stroke-linecap="round" stroke-linejoin="round"/>
<path d="M106.736 133.874C110.27 132.822 114.181 134.604 116.566 137.413C118.951 140.221 120.085 143.871 120.884 147.467C125.097 166.436 121.327 187.047 110.673 203.29C104.84 212.181 96.6195 220.021 86.3833 222.904C76.1471 225.786 63.8131 222.634 58.0568 213.691C52.5877 205.192 54.0772 193.963 57.4883 184.449C64.0774 166.075 77.3353 150.258 94.0271 140.204C124.889 121.613 157.386 153.897 169.458 180.265C174.632 191.57 177.46 205.649 170.379 215.868C164.373 224.535 152.206 227.745 142.141 224.598C132.075 221.451 124.289 212.83 120.537 202.969C116.785 193.108 116.754 182.155 118.65 171.782C120.639 160.981 123.587 148.277 130.748 139.763C137.655 131.545 141.774 121.039 153.224 118.333C160.808 116.539 168.813 118 176.189 120.513C191.378 125.71 204.75 135.166 214.712 147.754C220.017 154.482 224.414 163.371 221.375 171.385C218.169 179.836 208.081 183.468 199.05 183.866C184.093 184.454 169.506 179.131 158.443 169.048C132.439 145.105 131.788 88.8127 174.691 83.5454C189.348 81.7488 204.067 87.0588 216.728 94.6571C221.421 97.4769 226.043 100.737 229.031 105.325C232.018 109.913 233.078 116.107 230.421 120.894C228.201 124.894 223.769 127.284 219.266 128.089C214.764 128.893 210.142 128.316 205.622 127.64C184.837 124.53 161.846 120.195 142.547 111.565C133.19 107.378 117.76 90.3989 110.378 107.301C108.388 111.849 108.368 117.062 109.201 121.969C109.752 125.212 110.776 128.524 112.407 131.383" stroke="#413D58" stroke-width="2" stroke-linecap="round" stroke-linejoin="round"/>
<path d="M153.565 96.8796C169.677 84.6862 182.692 68.8707 191.557 50.713C195.209 43.2057 197.921 33.6034 192.77 27.0256C189.709 23.117 184.444 21.3973 179.484 21.6503C174.524 21.9032 169.819 23.876 165.445 26.2411C147.744 35.8206 134.341 52.6602 128.153 71.7226C125.958 78.4795 121.74 91.0523 125.449 97.8091C131.666 109.14 146.206 102.448 153.565 96.8796Z" stroke="#413D58" stroke-width="2" stroke-linecap="round" stroke-linejoin="round"/>
<path d="M131.359 42.8166C132.496 33.1319 132.956 22.8758 128.749 14.078C124.542 5.28012 114.252 -1.31186 104.988 1.76952C96.5825 4.56947 92.2162 13.788 90.1127 22.3954C85.3599 41.8388 85.3883 76.7288 104.934 88.9264C127.783 103.191 129.795 56.12 131.359 42.8166Z" stroke="#413D58" stroke-width="2" stroke-linecap="round" stroke-linejoin="round"/>
<path d="M75.0188 55.1104C70.6156 50.6277 65.8685 46.2643 60.0696 43.8452C54.2707 41.4262 47.1812 41.2641 42.0446 44.8828C36.1463 49.0415 34.2104 57.2907 35.8591 64.3176C37.5079 71.3445 42.1129 77.3111 47.1443 82.4733C59.3423 94.9252 74.6243 103.92 91.4319 108.54C111.293 113.964 108.453 99.4209 101.031 87.7889C93.5177 76.0232 84.7998 65.0713 75.0188 55.1104V55.1104Z" stroke="#413D58" stroke-width="2" stroke-linecap="round" stroke-linejoin="round"/>
</svg>
