<svg width="294" height="287" viewBox="0 0 294 287" fill="none" xmlns="http://www.w3.org/2000/svg">
<path d="M226.571 196.699C215.612 158.951 196.321 124.144 170.119 94.8452C156.158 79.25 140.057 65.1735 121.113 56.2751C102.17 47.3766 80.1096 43.9978 60.0195 49.8711C29.805 58.7086 8.21452 87.807 2.68882 118.79C-2.83688 149.773 5.73832 181.969 20.5284 209.744C35.3185 237.519 56.0977 261.586 76.7063 285.403C122.034 250.187 173.644 218.923 226.571 196.699Z" stroke="#413D58" stroke-width="2" stroke-miterlimit="10"/>
<path d="M115.129 53.3231C171.565 37.6731 235.433 20.5654 290.999 2C273.257 31.6168 249.337 56.946 225.611 82.019L189.249 118.381" stroke="#413D58" stroke-width="2" stroke-miterlimit="10"/>
<path d="M57.183 100.828C47.7235 111.739 41.716 126.206 43.2286 140.576C44.979 157.165 57.3843 172.132 73.3637 176.938C89.3431 181.744 107.945 176.09 118.557 163.215C129.17 150.34 131.152 131 123.382 116.253C119.112 108.098 112.3 101.578 105.634 95.2111C98.7479 88.6425 91.6791 84.4463 81.9878 85.8674C72.2965 87.2885 63.5199 93.5156 57.183 100.828Z" stroke="#413D58" stroke-width="2" stroke-miterlimit="10"/>
<path d="M67.7515 121.211C63.1894 128.182 64.8911 138.392 71.1792 143.863C77.4672 149.334 87.4391 149.761 94.4468 145.241C97.7037 143.137 100.418 139.953 101.241 136.166C104.955 118.827 78.1503 105.268 67.7515 121.211Z" stroke="#413D58" stroke-width="2" stroke-miterlimit="10"/>
</svg>
