<svg width="277" height="283" viewBox="0 0 277 283" fill="none" xmlns="http://www.w3.org/2000/svg">
<path d="M1 168.616C61.55 165.056 119.78 158.756 175.66 135.156C196.93 126.156 217.8 115.696 235.75 101.156C243.07 95.226 250.04 88.416 253.75 79.776C258.57 68.666 257.49 55.856 254.47 44.136C250.78 29.776 243.65 15.386 231 7.66596C220.79 1.42596 208.22 0.295958 196.31 1.34596C167.84 3.86596 141.21 17.966 120.12 37.256C98.48 57.146 81.9201 83.016 75.5901 111.706C69.2601 140.396 73.93 171.856 90.51 196.106C107.09 220.356 136.02 236.396 165.36 235.056C167.389 235.086 169.4 234.669 171.25 233.836C173.55 232.616 175.04 230.326 176.37 228.096C194.05 198.346 198.73 158.596 179.71 129.686C174.49 121.756 166.59 114.396 157.1 114.396C151.03 114.396 145.38 117.396 140.42 120.936C124.75 132.036 113.49 148.236 103.69 164.736C93.3401 182.146 84.02 201.076 83.52 221.326C83.02 241.576 93.6001 263.326 112.68 270.116C125.49 259.866 133.05 243.946 135.19 227.666C137.33 211.386 134.45 194.776 129.19 179.226C123.12 161.316 113.47 144.006 98.3501 132.656C93.5001 129.016 87.5501 125.926 81.6001 127.116C74.5101 128.526 69.9901 135.406 66.8501 141.916C60.2901 155.466 56.13 170.066 52.99 184.796C49.85 199.526 47.75 214.866 51.65 229.356C55.55 243.846 66.7601 257.246 81.5801 259.616C96.4001 261.986 110.72 253.196 121.58 242.876C149.36 216.486 164.32 177.176 161.1 138.996C160.1 126.746 157.04 114.176 149.21 104.696C147.94 103.156 146.41 101.636 144.45 101.266C141.82 100.776 139.32 102.476 137.3 104.266C118.88 120.266 112.36 145.846 109.4 170.046C106.44 194.246 106.4 220.046 118.19 241.406C122.12 248.476 127.87 255.246 135.73 257.126C148.03 260.066 159.61 250.126 166.85 239.716C180.58 220.016 187.67 196.116 189.23 172.146C190.79 148.176 187.01 124.076 180.44 100.966C173.83 77.706 163.64 54.226 144.63 39.286C141.15 36.556 136.77 34.026 132.52 35.286C129.11 36.286 126.8 39.376 124.94 42.396C108.57 68.876 106.21 101.576 107.12 132.686C107.79 156.046 110.12 179.686 118.75 201.456C123.6 213.696 130.85 225.626 142.18 232.326C144.32 233.596 146.73 234.686 149.18 234.506C154.36 234.116 157.46 228.696 159.42 223.896C175.003 185.392 177.518 142.838 166.58 102.766C161.84 85.586 153.58 67.836 137.79 59.486C136.435 58.6202 134.847 58.1909 133.24 58.256C130.63 58.576 128.91 61.056 127.64 63.356C115.73 84.796 112.13 110.356 115.21 134.646C118.29 158.936 127.8 182.206 140.54 203.166C151.31 220.886 165.46 237.916 184.97 244.956C191.03 247.136 197.67 248.276 203.97 246.746C212.33 244.746 219.04 238.026 222.7 230.236C226.36 222.446 227.32 213.656 227.24 205.046C227.07 187.806 222.94 170.806 217.24 154.536C212.96 142.346 207.61 130.216 198.76 120.806C184.69 105.806 163.28 99.626 142.76 99.546C137.813 99.4864 132.87 99.8645 127.99 100.676C102.99 105.076 81.9901 124.776 73.7301 148.726C65.4701 172.676 69.36 200.006 81.92 222.016C94.48 244.026 115.12 260.846 138.29 271.096C150.52 276.645 163.615 280.044 177 281.146C185 281.726 193.58 281.146 200.31 276.756C207.21 272.236 211.2 264.186 212.49 256.046C213.78 247.906 212.66 239.576 211.21 231.456C206.3 204.076 197.28 176.976 180.95 154.456C164.62 131.936 140.35 114.376 112.89 109.996C103.89 108.566 93.7201 108.836 86.7001 114.706C77.5501 122.326 77.1601 136.226 79.4701 147.906C85.1377 175.756 101.443 200.298 124.92 216.316C131.39 220.686 138.54 224.416 146.29 225.316C154.04 226.216 162.5 223.776 167.37 217.676C171.45 212.576 172.51 205.736 172.96 199.216C174.978 168.123 166.324 137.273 148.43 111.766C146.408 131.158 147.574 150.75 151.88 169.766C156.13 188.556 163.8 207.176 177.57 220.656C191.34 234.136 212.04 241.586 230.47 235.956C235.502 234.303 240.317 232.05 244.81 229.246C255.87 222.626 266.25 213.946 271.64 202.246C276.84 190.966 276.87 177.776 273.64 165.786C270.21 153.046 260.85 139.856 247.64 139.686C241.76 139.616 236.2 142.186 230.96 144.876C207.723 156.78 186.257 171.862 167.18 189.686C156.52 199.686 146.32 210.976 142.18 224.966C141.48 227.346 140.99 230.026 142.18 232.216C143.54 234.786 146.69 235.786 149.58 236.166C158.35 237.326 167.19 234.956 175.58 232.166C188.753 227.827 201.571 222.478 213.92 216.166C224.48 210.766 261.24 172.996 264.85 168.576" stroke="#413D58" stroke-width="2" stroke-linecap="round" stroke-linejoin="round"/>
</svg>
